# xmcd CD database file
#
# Track frame offsets:
#        150
#        25347
#        55046
#        74110
#        92158
#        93382
#        123341
#        137641
#        166358
#
# Disc length: 2554 seconds
#
# Revision: 0
# Processed by: cddbd v1.5.2PL0 Copyright (c) Steve Scherf et al.
# Submitted via: CUERipper 2.1.1
#
DISCID=7b09f809
DTITLE=David Simmons - The World Belongs To Me
DYEAR=1979
DGENRE=Soul
TTITLE0=Holdin' Back
TTITLE1=All I Want To Do (Is Make A Little Love To You)
TTITLE2=Hooked On You
TTITLE3=Uh Oh I Did It Again
TTITLE4=Uh Oh I Did It Again (Reprise)
TTITLE5=Locked Up In A Groove
TTITLE6=Children
TTITLE7=Someday Someway
TTITLE8=The World Belongs To Me
EXTD=
EXTT0=
EXTT1=
EXTT2=
EXTT3=
EXTT4=
EXTT5=
EXTT6=
EXTT7=
EXTT8=
PLAYORDER=
